<?xml version="1.0" encoding="UTF-8"?>
<svg width="158px" height="158px" viewBox="0 0 158 158" version="1.1" xmlns="http://www.w3.org/2000/svg" xmlns:xlink="http://www.w3.org/1999/xlink">
    <!-- Generator: Sketch 40.3 (33839) - http://www.bohemiancoding.com/sketch -->
    <title>Artboard 3</title>
    <desc>Created with Sketch.</desc>
    <defs>
        <path d="M109.8,61.9 C121.7,50.3 125.3,32.2 120.6,20.7 C115.901,9.2 103.3,0.1 94.6,0.1 C91.241,0.1 86.525,1.638 82,3.523 L82,0.5 L79.3,0.5 L79.3,4.695 C73.215,7.441 68.1,10.4 68.1,10.4 C53.9,17.3 42.4,23.9 38.7,30.6 C35,37.2 34.5,42.6 34.5,42.6 C34.5,42.6 23.2,38.7 15.4,41.9 C9,44.5 2.2,49.5 1.1,61.6 C3.55271368e-14,73.7 6.5,82.8 13.1,86.1 C19.7,89.401 28.1,88 28.2,87.901 C28.2,87.8 27,85.401 27,85.401 C25.6,85.501 21.9,85.501 21.9,85.501 C12.8,85.501 5.5,77.901 5.5,68.801 C5.5,65.301 6.6,62.001 8.5,59.301 C9.4,57.901 10.5,56.701 11.8,55.801 C14.6,53.601 18.2,52.201 22,52.201 C27.2,52.201 32.8,54.401 34.8,58.601 C34.2,58.601 29.4,57.901 25.2,61.201 C20.1,65.001 22,72.301 22,72.301 C24.8,69.101 41.2,65.901 44.6,84.902 C48,103.902 35.8,112.402 35.8,112.402 C44.2,111.002 57.3,105.502 61.8,101.301 C65.6,97.801 75.1,89.301 75.2,74.402 C75.5,62.002 73,51.902 71.4,46.801 C70.2,43.001 68.6,39.001 65.6,31.601 C62.6,24.201 63,17.201 67.5,14.001 C69.608,12.501 74.351,12.561 79.3,14.775 L79.3,111.4 C72.6,109.2 50.3,106.799 34.5,117.5 C18.7,128.201 18.3,145.5 18.3,145.5 C21.8,139.8 38.1,133.1 54.7,138 C71.144,142.854 76.007,149.373 77.361,149.689 L77.4,149.799 C77.4,149.799 77.69,149.483 78.206,148.918 C79.647,147.412 82.854,143.887 86.451,139.898 C95.664,129.812 108.599,115.627 108.599,115.499 C108.599,115.299 106.799,113.699 106.599,113.699 C106.537,113.699 103.615,116.896 99.613,121.305 C93.025,115.731 82.099,112.199 82.099,112.199 L82.099,74 C82.1,74 97.9,73.6 109.8,61.9 Z M82,70.9 L82,16.202 C86.712,19.076 91.213,23.999 93.4,31.5 C98.3,48.3 92.4,69.7 82,70.9 Z" id="path-1"></path>
        <path d="M16.4,36.5 C25.8,41.5 36.9,33.9 36.9,33.9 C36.9,33.9 37.6,30.1 37.5,30.1 C37.1,30.1 33.6,33 29,34 C27.4,34.4 25.9,34.6 24.3,34.6 C22.7,34.7 21,34.5 19.3,33.8 C14.9,32.1 12.4,28.1 13.6,25.1 C14.8,22 17.9,20.8 23.7,22.7 C29.5,24.6 34,27.5 45.2,26.3 C56.4,25.1 64.6,16.1 67.6,10.2 C70.6,4.3 69.4,0.5 69.4,0.5 C69.4,0.5 68.6,5 62.2,7.8 C55.9,10.7 46,5.5 36.9,3.6 C27.7,1.7 14.5,2 9.6,11.8 C4.7,21.6 7.1,31.5 16.4,36.5 L16.4,36.5 Z" id="path-3"></path>
    </defs>
    <g id="Page-1" stroke="none" stroke-width="1" fill="none" fill-rule="evenodd">
        <g id="Artboard-3">
            <g id="USA-P" transform="translate(18.000000, 0.000000)">
                <g id="Group" transform="translate(0.000000, 8.000000)">
                    <mask id="mask-2" fill="white">
                        <use xlink:href="#path-1"></use>
                    </mask>
                    <use id="Combined-Shape" fill="#000000" xlink:href="#path-1"></use>
                    <rect id="Combined-Shape" fill="#FFFFFF" mask="url(#mask-2)" x="-32" y="-126" width="333" height="359"></rect>
                    <rect id="Rectangle-2-Copy-3" fill="#ED2941" mask="url(#mask-2)" x="77" y="27" width="182" height="19"></rect>
                    <rect id="Rectangle-2-Copy-4" fill="#ED2941" mask="url(#mask-2)" x="79" y="65" width="182" height="19"></rect>
                    <rect id="Rectangle-2-Copy-5" fill="#ED2941" mask="url(#mask-2)" x="-47" y="103" width="315" height="19"></rect>
                    <rect id="Rectangle-2-Copy-6" fill="#ED2941" mask="url(#mask-2)" x="-50" y="141" width="314" height="19"></rect>
                    <rect id="Rectangle-2" fill="#ED2941" mask="url(#mask-2)" x="76" y="-11" width="182" height="19"></rect>
                    <rect id="Rectangle" fill="#27AAE1" mask="url(#mask-2)" x="-64" y="-13" width="143" height="97"></rect>
                    <rect id="Rectangle-Copy-2" fill="#27AAE1" mask="url(#mask-2)" x="-110" y="0" width="143" height="97"></rect>
                </g>
                <mask id="mask-4" fill="white">
                    <use xlink:href="#path-3"></use>
                </mask>
                <use id="Shape" fill="#000000" xlink:href="#path-3"></use>
                <rect id="Rectangle-Copy" fill="#27AAE1" mask="url(#mask-4)" x="-110" y="-37" width="193" height="181"></rect>
            </g>
        </g>
    </g>
</svg>